<?xml version="1.0" encoding="UTF-8"?><svg id="Layer_2" xmlns="http://www.w3.org/2000/svg" viewBox="0 0 2123.77 426.6"><defs><style>.cls-1{fill:#231f20;}</style></defs><g id="Layer_1-2"><polygon class="cls-1" points="402.26 0 268.27 0 268.27 98.05 332.47 98.05 402.26 0"/><polygon class="cls-1" points="267.83 425.03 469.44 425.03 469.44 326.15 338.46 326.15 267.83 425.03"/><polygon class="cls-1" points="193.33 286.78 193.33 97.83 246.88 97.83 246.88 .38 163.17 .38 163.17 .43 110.45 .43 110.45 .35 0 .35 0 97.89 98.97 97.89 98.97 419.95 193.33 286.78"/><polygon class="cls-1" points="124.34 425.66 239.13 425.66 473.97 98.05 473.97 0 428.28 0 124.34 425.66"/><polygon class="cls-1" points="622.88 329.81 606.29 329.81 606.29 426.6 666.58 426.6 666.58 411.39 622.88 411.39 622.88 329.81"/><path class="cls-1" d="m771.52,329.81h-33.88c-13.14,0-19.36,6.22-19.36,19.36v58.08c0,13.13,6.22,19.36,19.36,19.36h33.88c13.14,0,19.36-6.22,19.36-19.36v-58.08c0-13.14-6.22-19.36-19.36-19.36Zm2.77,76.47c0,3.73-1.38,5.12-5.12,5.12h-29.04c-3.87,0-5.25-1.38-5.25-5.12v-56.14c0-3.73,1.38-5.12,5.25-5.12h29.04c3.73,0,5.12,1.38,5.12,5.12v56.14Z"/><polygon class="cls-1" points="882.55 408.35 859.73 329.81 841.62 329.81 872.73 426.6 891.95 426.6 923.06 329.81 905.5 329.81 882.55 408.35"/><polygon class="cls-1" points="977.81 426.6 1041.56 426.6 1041.56 411.39 994.41 411.39 994.41 384.57 1033.26 384.57 1033.26 369.63 994.41 369.63 994.41 345.02 1041.56 345.02 1041.56 329.81 977.81 329.81 977.81 426.6"/><polygon class="cls-1" points="1162.12 344.88 1189.64 344.88 1189.64 426.6 1206.23 426.6 1206.23 344.88 1233.61 344.88 1233.61 329.81 1162.12 329.81 1162.12 344.88"/><polygon class="cls-1" points="1344.92 369.5 1305.65 369.5 1305.65 329.81 1289.05 329.81 1289.05 426.6 1305.65 426.6 1305.65 384.71 1344.92 384.71 1344.92 426.6 1361.51 426.6 1361.51 329.81 1344.92 329.81 1344.92 369.5"/><polygon class="cls-1" points="1424.97 426.6 1488.71 426.6 1488.71 411.39 1441.56 411.39 1441.56 384.57 1480.42 384.57 1480.42 369.63 1441.56 369.63 1441.56 345.02 1488.71 345.02 1488.71 329.81 1424.97 329.81 1424.97 426.6"/><polygon class="cls-1" points="1698.19 405.17 1678.55 329.81 1664.17 329.81 1644.54 405.17 1627.67 329.81 1610.24 329.81 1635.13 426.6 1653.25 426.6 1671.36 357.47 1689.48 426.6 1706.9 426.6 1731.79 329.81 1715.06 329.81 1698.19 405.17"/><path class="cls-1" d="m1835.62,329.81h-33.88c-13.14,0-19.36,6.22-19.36,19.36v58.08c0,13.13,6.22,19.36,19.36,19.36h33.88c13.14,0,19.36-6.22,19.36-19.36v-58.08c0-13.14-6.22-19.36-19.36-19.36Zm2.77,76.47c0,3.73-1.38,5.12-5.12,5.12h-29.04c-3.87,0-5.25-1.38-5.25-5.12v-56.14c0-3.73,1.38-5.12,5.25-5.12h29.04c3.73,0,5.12,1.38,5.12,5.12v56.14Z"/><path class="cls-1" d="m1985.09,370.74v-21.57c0-13.14-6.22-19.36-19.36-19.36h-49.64v96.79h16.59v-36.09h19.64l17.84,36.09h17.98l-18.11-36.78c10.23-1.24,15.07-7.47,15.07-19.08Zm-16.59-.28c0,3.87-1.38,5.25-5.12,5.25h-30.7v-30.84h30.7c3.73,0,5.12,1.38,5.12,5.12v20.46Z"/><polygon class="cls-1" points="2121.84 329.81 2102.06 329.81 2062.52 379.04 2062.52 329.81 2046.2 329.81 2046.2 426.6 2062.52 426.6 2062.52 401.44 2078.97 381.66 2104.97 426.6 2123.77 426.6 2090.03 368.25 2121.84 329.81"/><path class="cls-1" d="m675.23,2.84h-99.76c-1.93,0-3.08,1.16-3.08,3.08v32.74c0,1.15.77,2.7,3.08,2.7h29.27v228.03c0,1.16,1.16,3.08,3.08,3.08h35.05c1.54,0,2.7-.77,2.7-3.08V41.35h29.66c1.54,0,3.08-.77,3.08-2.7V5.92c0-1.93-1.54-3.08-3.08-3.08Z"/><path class="cls-1" d="m776.92,156.52c23.11-2.31,30.04-15.79,30.04-37.36V40.2c0-23.5-10.4-37.36-38.9-37.36h-69.33c-1.93,0-3.08,1.16-3.08,3.08v263.46c0,1.16.77,3.08,3.08,3.08h34.67c1.93,0,3.08-.77,3.08-3.08v-106.31l29.66,106.31c0,1.16.77,3.08,3.08,3.08h38.52c1.93,0,3.47-.77,3.08-3.08l-33.9-112.86Zm-10.79-40.44c0,1.54-.38,1.93-1.93,1.93h-27.73V41.74h27.73c1.54,0,1.93.39,1.93,1.93v72.41Z"/><path class="cls-1" d="m905.57,2.84h-39.67c-2.31,0-3.08,1.93-3.08,3.08l-45.84,263.46c0,1.93,1.16,3.08,3.08,3.08h36.21c1.93,0,3.08-1.16,3.08-3.08l9.63-64.32h31.97l8.86,64.32c0,1.93,1.54,3.08,3.08,3.08h36.21c1.93,0,3.08-1.16,3.08-3.08L908.65,5.92c0-1.16-.77-3.08-3.08-3.08Zm-30.81,163.7l11.17-74.34,10.01,74.34h-21.18Z"/><path class="cls-1" d="m1010.33,269.38V5.92c0-1.93-1.16-3.08-3.08-3.08h-34.67c-1.93,0-3.08,1.16-3.08,3.08v263.46c0,1.16.77,3.08,3.08,3.08h34.67c1.93,0,3.08-.77,3.08-3.08Z"/><path class="cls-1" d="m1159.01,2.84h-33.9c-1.93,0-3.08,1.16-3.08,3.08v128.26l-36.21-128.26c0-1.93-1.16-3.08-3.08-3.08h-34.67c-1.93,0-3.08,1.16-3.08,3.08v263.46c0,1.16.77,3.08,3.08,3.08h33.9c1.93,0,3.08-.77,3.08-3.08v-128.26l36.21,128.26c0,1.16.77,3.08,3.08,3.08h34.67c1.54,0,3.08-.77,3.08-3.08V5.92c0-1.93-1.54-3.08-3.08-3.08Z"/><path class="cls-1" d="m1234.5,2.84h-34.67c-1.93,0-3.08,1.16-3.08,3.08v263.46c0,1.16.77,3.08,3.08,3.08h34.67c1.93,0,3.08-.77,3.08-3.08V5.92c0-1.93-1.16-3.08-3.08-3.08Z"/><path class="cls-1" d="m1386.26,2.84h-33.9c-1.93,0-3.08,1.16-3.08,3.08v128.26l-36.21-128.26c0-1.93-1.16-3.08-3.08-3.08h-34.67c-1.93,0-3.08,1.16-3.08,3.08v263.46c0,1.16.77,3.08,3.08,3.08h33.9c1.93,0,3.08-.77,3.08-3.08v-128.26l36.21,128.26c0,1.16.77,3.08,3.08,3.08h34.67c1.54,0,3.08-.77,3.08-3.08V5.92c0-1.93-1.54-3.08-3.08-3.08Z"/><path class="cls-1" d="m1498.35.91h-39.29c-28.5,0-38.9,13.87-38.9,37.75v198.75c0,23.11,8.86,36.98,39.67,36.98h38.9c30.04,0,38.52-13.87,38.52-37.75v-103.23c0-1.93-1.16-2.7-3.08-2.7h-50.84c-1.93,0-3.08,1.16-3.08,2.7v32.74c0,1.15.77,3.08,3.08,3.08h13.1v64.32c0,1.54-.39,1.93-1.93,1.93h-31.58c-1.54,0-1.93-.39-1.93-1.93V41.74c0-1.54.39-1.93,1.93-1.93h31.58c1.54,0,1.93.39,1.93,1.93v32.36c0,1.93,1.54,2.7,3.08,2.7h34.67c1.93,0,3.08-.77,3.08-2.7v-35.82c0-23.5-10.4-37.36-38.9-37.36Z"/><path class="cls-1" d="m1724.82,35.96V5.92c0-1.93-1.16-3.08-3.08-3.08h-102.07c-1.93,0-3.08,1.16-3.08,3.08v32.74c0,1.15.77,2.7,3.08,2.7h62.78l-67.02,189.51c-.77,1.93-1.16,5.78-1.16,8.09v30.43c0,1.16.77,3.08,3.08,3.08h102.46c1.54,0,2.7-.77,2.7-3.08v-32.74c0-1.54-1.16-2.7-2.7-2.7h-63.17l65.87-187.2c1.54-3.47,2.31-7.32,2.31-10.79Z"/><path class="cls-1" d="m1818.42.91h-39.29c-28.5,0-38.9,13.87-38.9,37.75v198.75c0,23.11,8.86,36.98,39.67,36.98h38.9c30.04,0,38.52-13.87,38.52-37.75V38.27c0-23.5-10.4-37.36-38.9-37.36Zm-1.93,232.65c0,1.54-.39,1.93-1.93,1.93h-31.58c-1.54,0-1.93-.39-1.93-1.93V41.74c0-1.54.39-1.93,1.93-1.93h31.58c1.54,0,1.93.39,1.93,1.93v191.82Z"/><path class="cls-1" d="m2002.14,2.84h-33.9c-1.93,0-3.08,1.16-3.08,3.08v128.26l-36.21-128.26c0-1.93-1.16-3.08-3.08-3.08h-34.67c-1.93,0-3.08,1.16-3.08,3.08v263.46c0,1.16.77,3.08,3.08,3.08h33.9c1.93,0,3.08-.77,3.08-3.08v-128.26l36.21,128.26c0,1.16.77,3.08,3.08,3.08h34.67c1.54,0,3.08-.77,3.08-3.08V5.92c0-1.93-1.54-3.08-3.08-3.08Z"/><path class="cls-1" d="m2117.7,269.38v-33.12c0-1.54-1.54-2.7-3.08-2.7h-33.9v-78.58h33.9c1.54,0,3.08-.77,3.08-3.08v-32.74c0-1.93-1.54-3.08-3.08-3.08h-33.9V41.35h33.9c1.54,0,3.08-.77,3.08-2.7V5.92c0-1.93-1.54-3.08-3.08-3.08h-71.64c-1.93,0-3.08,1.16-3.08,3.08v263.46c0,1.16.77,3.08,3.08,3.08h71.64c1.54,0,3.08-.77,3.08-3.08Z"/></g></svg>