<?xml version="1.0" encoding="UTF-8"?><svg id="Layer_2" xmlns="http://www.w3.org/2000/svg" viewBox="0 0 1551.38 961.13"><defs><style>.cls-1{fill:#fff;}</style></defs><g id="Layer_1-2"><polygon class="cls-1" points="942.74 0 808.75 0 808.75 98.05 872.95 98.05 942.74 0"/><polygon class="cls-1" points="1009.92 326.15 878.94 326.15 808.31 425.03 1009.92 425.03 1009.92 326.15"/><polygon class="cls-1" points="639.45 419.95 733.81 286.78 733.81 97.83 787.36 97.83 787.36 .38 703.64 .38 703.64 .43 650.93 .43 650.93 .35 540.48 .35 540.48 97.89 639.45 97.89 639.45 419.95"/><polygon class="cls-1" points="664.81 425.66 779.61 425.66 1014.45 98.05 1014.45 0 968.75 0 664.81 425.66"/><polygon class="cls-1" points="33.9 864.33 33.9 961.13 94.19 961.13 94.19 945.92 50.49 945.92 50.49 864.33 33.9 864.33"/><path class="cls-1" d="m218.49,941.77v-58.08c0-13.14-6.22-19.36-19.36-19.36h-33.88c-13.14,0-19.36,6.22-19.36,19.36v58.08c0,13.14,6.22,19.36,19.36,19.36h33.88c13.14,0,19.36-6.22,19.36-19.36Zm-50.75,4.15c-3.87,0-5.25-1.38-5.25-5.12v-56.14c0-3.73,1.38-5.12,5.25-5.12h29.04c3.73,0,5.12,1.38,5.12,5.12v56.14c0,3.73-1.38,5.12-5.12,5.12h-29.04Z"/><polygon class="cls-1" points="319.56 961.13 350.67 864.33 333.11 864.33 310.16 942.87 287.34 864.33 269.23 864.33 300.34 961.13 319.56 961.13"/><polygon class="cls-1" points="405.42 961.13 469.17 961.13 469.17 945.92 422.02 945.92 422.02 919.09 460.87 919.09 460.87 904.16 422.02 904.16 422.02 879.54 469.17 879.54 469.17 864.33 405.42 864.33 405.42 961.13"/><polygon class="cls-1" points="661.22 864.33 589.73 864.33 589.73 879.41 617.25 879.41 617.25 961.13 633.84 961.13 633.84 879.41 661.22 879.41 661.22 864.33"/><polygon class="cls-1" points="789.12 961.13 789.12 864.33 772.52 864.33 772.52 904.02 733.25 904.02 733.25 864.33 716.66 864.33 716.66 961.13 733.25 961.13 733.25 919.23 772.52 919.23 772.52 961.13 789.12 961.13"/><polygon class="cls-1" points="916.32 879.54 916.32 864.33 852.58 864.33 852.58 961.13 916.32 961.13 916.32 945.92 869.17 945.92 869.17 919.09 908.02 919.09 908.02 904.16 869.17 904.16 869.17 879.54 916.32 879.54"/><polygon class="cls-1" points="1125.8 939.69 1106.16 864.33 1091.78 864.33 1072.15 939.69 1055.28 864.33 1037.85 864.33 1062.74 961.13 1080.86 961.13 1098.97 891.99 1117.08 961.13 1134.51 961.13 1159.4 864.33 1142.67 864.33 1125.8 939.69"/><path class="cls-1" d="m1263.23,864.33h-33.88c-13.14,0-19.36,6.22-19.36,19.36v58.08c0,13.14,6.22,19.36,19.36,19.36h33.88c13.14,0,19.36-6.22,19.36-19.36v-58.08c0-13.14-6.22-19.36-19.36-19.36Zm2.77,76.47c0,3.73-1.38,5.12-5.12,5.12h-29.04c-3.87,0-5.25-1.38-5.25-5.12v-56.14c0-3.73,1.38-5.12,5.25-5.12h29.04c3.73,0,5.12,1.38,5.12,5.12v56.14Z"/><path class="cls-1" d="m1412.7,905.26v-21.57c0-13.14-6.22-19.36-19.36-19.36h-49.64v96.79h16.59v-36.09h19.64l17.84,36.09h17.98l-18.11-36.78c10.23-1.24,15.07-7.47,15.07-19.08Zm-16.59-.28c0,3.87-1.38,5.25-5.12,5.25h-30.7v-30.83h30.7c3.73,0,5.12,1.38,5.12,5.12v20.46Z"/><polygon class="cls-1" points="1529.67 864.33 1490.13 913.56 1490.13 864.33 1473.81 864.33 1473.81 961.13 1490.13 961.13 1490.13 935.96 1506.58 916.19 1532.58 961.13 1551.38 961.13 1517.64 902.77 1549.45 864.33 1529.67 864.33"/><path class="cls-1" d="m102.84,537.36H3.08c-1.93,0-3.08,1.16-3.08,3.08v32.74c0,1.16.77,2.7,3.08,2.7h29.27v228.03c0,1.16,1.16,3.08,3.08,3.08h35.05c1.54,0,2.7-.77,2.7-3.08v-228.03h29.66c1.54,0,3.08-.77,3.08-2.7v-32.74c0-1.93-1.54-3.08-3.08-3.08Z"/><path class="cls-1" d="m126.34,806.98h34.67c1.93,0,3.08-.77,3.08-3.08v-106.31l29.66,106.31c0,1.16.77,3.08,3.08,3.08h38.52c1.93,0,3.47-.77,3.08-3.08l-33.9-112.86c23.11-2.31,30.04-15.79,30.04-37.36v-78.96c0-23.5-10.4-37.36-38.9-37.36h-69.33c-1.93,0-3.08,1.16-3.08,3.08v263.46c0,1.16.77,3.08,3.08,3.08Zm37.75-230.72h27.73c1.54,0,1.93.39,1.93,1.93v72.41c0,1.54-.38,1.93-1.93,1.93h-27.73v-76.27Z"/><path class="cls-1" d="m247.67,806.98h36.21c1.93,0,3.08-1.16,3.08-3.08l9.63-64.33h31.97l8.86,64.33c0,1.93,1.54,3.08,3.08,3.08h36.21c1.93,0,3.08-1.16,3.08-3.08l-43.52-263.46c0-1.16-.77-3.08-3.08-3.08h-39.67c-2.31,0-3.08,1.93-3.08,3.08l-45.84,263.46c0,1.93,1.16,3.08,3.08,3.08Zm65.87-180.26l10.01,74.34h-21.18l11.17-74.34Z"/><path class="cls-1" d="m400.19,806.98h34.67c1.93,0,3.08-.77,3.08-3.08v-263.46c0-1.93-1.16-3.08-3.08-3.08h-34.67c-1.93,0-3.08,1.16-3.08,3.08v263.46c0,1.16.77,3.08,3.08,3.08Z"/><path class="cls-1" d="m475.69,806.98h33.9c1.93,0,3.08-.77,3.08-3.08v-128.26l36.21,128.26c0,1.16.77,3.08,3.08,3.08h34.67c1.54,0,3.08-.77,3.08-3.08v-263.46c0-1.93-1.54-3.08-3.08-3.08h-33.9c-1.93,0-3.08,1.16-3.08,3.08v128.26l-36.21-128.26c0-1.93-1.16-3.08-3.08-3.08h-34.67c-1.93,0-3.08,1.16-3.08,3.08v263.46c0,1.16.77,3.08,3.08,3.08Z"/><path class="cls-1" d="m662.11,537.36h-34.67c-1.93,0-3.08,1.16-3.08,3.08v263.46c0,1.16.77,3.08,3.08,3.08h34.67c1.93,0,3.08-.77,3.08-3.08v-263.46c0-1.93-1.16-3.08-3.08-3.08Z"/><path class="cls-1" d="m776.89,540.44v128.26l-36.21-128.26c0-1.93-1.16-3.08-3.08-3.08h-34.67c-1.93,0-3.08,1.16-3.08,3.08v263.46c0,1.16.77,3.08,3.08,3.08h33.9c1.93,0,3.08-.77,3.08-3.08v-128.26l36.21,128.26c0,1.16.77,3.08,3.08,3.08h34.67c1.54,0,3.08-.77,3.08-3.08v-263.46c0-1.93-1.54-3.08-3.08-3.08h-33.9c-1.93,0-3.08,1.16-3.08,3.08Z"/><path class="cls-1" d="m927.11,611.31h34.67c1.93,0,3.08-.77,3.08-2.7v-35.82c0-23.5-10.4-37.36-38.9-37.36h-39.29c-28.5,0-38.9,13.87-38.9,37.75v198.75c0,23.11,8.86,36.98,39.67,36.98h38.9c30.04,0,38.52-13.87,38.52-37.75v-103.23c0-1.93-1.16-2.7-3.08-2.7h-50.84c-1.93,0-3.08,1.16-3.08,2.7v32.74c0,1.16.77,3.08,3.08,3.08h13.1v64.32c0,1.54-.39,1.93-1.93,1.93h-31.58c-1.54,0-1.93-.39-1.93-1.93v-191.82c0-1.54.39-1.93,1.93-1.93h31.58c1.54,0,1.93.39,1.93,1.93v32.36c0,1.93,1.54,2.7,3.08,2.7Z"/><path class="cls-1" d="m1044.96,806.98h102.46c1.54,0,2.7-.77,2.7-3.08v-32.74c0-1.54-1.16-2.7-2.7-2.7h-63.17l65.87-187.2c1.54-3.47,2.31-7.32,2.31-10.79v-30.04c0-1.93-1.16-3.08-3.08-3.08h-102.07c-1.93,0-3.08,1.16-3.08,3.08v32.74c0,1.16.77,2.7,3.08,2.7h62.78l-67.02,189.51c-.77,1.93-1.16,5.78-1.16,8.09v30.43c0,1.16.77,3.08,3.08,3.08Z"/><path class="cls-1" d="m1207.51,808.91h38.9c30.04,0,38.52-13.87,38.52-37.75v-198.37c0-23.5-10.4-37.36-38.9-37.36h-39.29c-28.5,0-38.9,13.87-38.9,37.75v198.75c0,23.11,8.86,36.98,39.67,36.98Zm1.16-232.65c0-1.54.39-1.93,1.93-1.93h31.58c1.54,0,1.93.39,1.93,1.93v191.82c0,1.54-.39,1.93-1.93,1.93h-31.58c-1.54,0-1.93-.39-1.93-1.93v-191.82Z"/><path class="cls-1" d="m1318.82,806.98h33.9c1.93,0,3.08-.77,3.08-3.08v-128.26l36.21,128.26c0,1.16.77,3.08,3.08,3.08h34.67c1.54,0,3.08-.77,3.08-3.08v-263.46c0-1.93-1.54-3.08-3.08-3.08h-33.9c-1.93,0-3.08,1.16-3.08,3.08v128.26l-36.21-128.26c0-1.93-1.16-3.08-3.08-3.08h-34.67c-1.93,0-3.08,1.16-3.08,3.08v263.46c0,1.16.77,3.08,3.08,3.08Z"/><path class="cls-1" d="m1470.58,806.98h71.64c1.54,0,3.08-.77,3.08-3.08v-33.13c0-1.54-1.54-2.7-3.08-2.7h-33.9v-78.58h33.9c1.54,0,3.08-.77,3.08-3.08v-32.74c0-1.93-1.54-3.08-3.08-3.08h-33.9v-74.72h33.9c1.54,0,3.08-.77,3.08-2.7v-32.74c0-1.93-1.54-3.08-3.08-3.08h-71.64c-1.93,0-3.08,1.16-3.08,3.08v263.46c0,1.16.77,3.08,3.08,3.08Z"/></g></svg>